<svg width="12" height="14" viewBox="0 0 12 14" fill="none" xmlns="http://www.w3.org/2000/svg">
<path d="M6.75 0.75V3.41667C6.75 3.59348 6.82024 3.76305 6.94526 3.88807C7.07029 4.0131 7.23986 4.08333 7.41667 4.08333H10.0833M6.75 0.75H2.08333C1.72971 0.75 1.39057 0.890476 1.14052 1.14052C0.890476 1.39057 0.75 1.72971 0.75 2.08333V11.4167C0.75 11.7703 0.890476 12.1094 1.14052 12.3595C1.39057 12.6095 1.72971 12.75 2.08333 12.75H8.08333C9.1879 12.75 10.0833 11.8546 10.0833 10.75M6.75 0.75L10.0833 4.08333M10.0833 4.08333C10.0833 4.08333 10.0833 4.63562 10.0833 5.41667M10.75 8.08333H5.41667M5.41667 8.08333L7.41667 6.08333M5.41667 8.08333L7.41667 10.0833" stroke="#717680" stroke-width="1.5" stroke-linecap="round" stroke-linejoin="round"/>
</svg>
