<svg width="20" height="20" viewBox="0 0 20 20" fill="none" xmlns="http://www.w3.org/2000/svg">
<g clip-path="url(#clip0_1430_6335)">
<path d="M0 10C0 2 2 0 10 0C18 0 20 2 20 10C20 18 18 20 10 20C2 20 0 18 0 10Z" fill="url(#paint0_linear_1430_6335)"/>
<path d="M15.481 8.37943C15.4303 8.20486 15.3703 8.03319 15.3011 7.86512C15.0122 7.15179 14.5829 6.50372 14.0389 5.95945C13.4948 5.41517 12.847 4.98581 12.1338 4.69672C11.992 5.16 11.8203 5.6136 11.6196 6.05462C12.1415 6.27005 12.6157 6.58655 13.0149 6.98593C13.4141 7.38529 13.7304 7.85962 13.9456 8.38167C14.0157 8.55095 14.0744 8.72476 14.1212 8.90191C14.1771 9.11136 14.2166 9.32476 14.2394 9.54036L13.9523 9.37291C12.8737 8.74257 11.9339 7.90022 11.1898 6.89667C10.9388 7.34212 10.6575 7.76974 10.3479 8.17662C10.9098 8.86174 11.5548 9.4741 12.2682 9.9996C11.0957 10.8647 10.1117 11.9595 9.3759 13.2173C9.20545 13.5112 9.04743 13.8103 8.90416 14.1189C8.86964 14.1924 8.83657 14.2658 8.80497 14.3393C8.78342 14.3882 8.76197 14.4385 8.7404 14.49C8.72057 14.537 8.70066 14.584 8.68231 14.6325C8.67495 14.6479 8.66971 14.6626 8.66312 14.678C8.55878 14.9404 8.46412 15.2086 8.38257 15.4805C9.368 15.7715 10.4136 15.7912 11.4094 15.5379C12.4051 15.2845 13.3141 14.7673 14.0407 14.0407C14.7672 13.314 15.2845 12.4048 15.5379 11.4089C15.7912 10.413 15.7713 9.36724 15.4803 8.38167L15.481 8.37943ZM10.4675 14.2356C10.5182 14.1401 10.5726 14.0431 10.6277 13.9491C11.4325 12.5741 12.5769 11.429 13.9514 10.6234L14.2394 10.456C14.1333 11.4207 13.7019 12.3204 13.0163 13.0073C12.3308 13.6941 11.4319 14.1278 10.4675 14.2356Z" fill="white"/>
<path d="M6.05829 11.6155C5.98793 11.4465 5.92903 11.2729 5.88198 11.096C5.82627 10.886 5.78641 10.672 5.76288 10.456L6.05022 10.6236C7.12905 11.2542 8.06879 12.097 8.81265 13.1012C9.0641 12.6558 9.34539 12.228 9.65458 11.8206C9.09243 11.1354 8.44705 10.5229 7.73338 9.99749C8.90593 9.13253 9.89029 8.03808 10.6266 6.78065C10.7977 6.48673 10.9556 6.1862 11.0988 5.87758L11.1636 5.73506C11.1834 5.69099 11.2024 5.64687 11.2215 5.60206C11.3739 5.2488 11.5061 4.8872 11.6176 4.51896C10.632 4.22844 9.58646 4.20892 8.59077 4.46256C7.59508 4.7162 6.68615 5.23361 5.95965 5.9603C5.23315 6.68696 4.71598 7.59601 4.46248 8.59187C4.20896 9.58773 4.22855 10.6335 4.51915 11.6192C4.57057 11.7941 4.63143 11.9668 4.69977 12.1336C4.98846 12.8469 5.41769 13.4949 5.96179 14.0391C6.50588 14.5832 7.15377 15.0125 7.86703 15.3012C8.00898 14.8387 8.18072 14.3858 8.38127 13.9455C7.85974 13.7292 7.38605 13.4121 6.98741 13.0122C6.58877 12.6124 6.2731 12.1377 6.05829 11.6155ZM9.53762 5.76001C9.48474 5.85699 9.43186 5.95325 9.37603 6.0473C8.57024 7.42182 7.42543 8.56663 6.05093 9.37223L5.7636 9.54049C5.86938 8.57515 6.30081 7.6747 6.98686 6.98749C7.67291 6.30027 8.5726 5.8673 9.53762 5.76001Z" fill="white"/>
</g>
<defs>
<linearGradient id="paint0_linear_1430_6335" x1="10" y1="0.12" x2="10" y2="19.78" gradientUnits="userSpaceOnUse">
<stop stop-color="#00D29D"/>
<stop offset="1" stop-color="#00A79D"/>
</linearGradient>
<clipPath id="clip0_1430_6335">
<rect width="20" height="20" fill="white"/>
</clipPath>
</defs>
</svg>
