<svg width="13" height="13" viewBox="0 0 13 13" fill="none" xmlns="http://www.w3.org/2000/svg">
<path d="M11.3714 6.77904C11.2455 7.73901 10.8607 8.64661 10.2582 9.40449C9.65567 10.1624 8.85822 10.7419 7.95136 11.0811C7.04451 11.4202 6.06244 11.506 5.11049 11.3294C4.15855 11.1528 3.27263 10.7204 2.54776 10.0786C1.82288 9.43675 1.2864 8.6097 0.995838 7.68614C0.705277 6.76258 0.671602 5.77734 0.898426 4.8361C1.12525 3.89485 1.60401 3.03311 2.28337 2.34328C2.96273 1.65345 3.81706 1.16157 4.75472 0.920375C7.35406 0.253708 10.0447 1.59171 11.0381 4.08504M11.4161 0.751699V4.08503H8.08272" stroke="#717680" stroke-width="1.5" stroke-linecap="round" stroke-linejoin="round"/>
</svg>
