<svg width="14" height="14" viewBox="0 0 14 14" fill="none" xmlns="http://www.w3.org/2000/svg">
<path d="M10.0833 10.0833V11.4167C10.0833 11.7703 9.94286 12.1094 9.69281 12.3595C9.44276 12.6095 9.10362 12.75 8.75 12.75H2.08333C1.72971 12.75 1.39057 12.6095 1.14052 12.3595C0.890476 12.1094 0.75 11.7703 0.75 11.4167V4.75C0.75 4.39638 0.890476 4.05724 1.14052 3.80719C1.39057 3.55714 1.72971 3.41667 2.08333 3.41667H3.41667M3.41667 2.08333C3.41667 1.72971 3.55714 1.39057 3.80719 1.14052C4.05724 0.890476 4.39638 0.75 4.75 0.75H11.4167C11.7703 0.75 12.1094 0.890476 12.3595 1.14052C12.6095 1.39057 12.75 1.72971 12.75 2.08333V8.75C12.75 9.10362 12.6095 9.44276 12.3595 9.69281C12.1094 9.94286 11.7703 10.0833 11.4167 10.0833H4.75C4.39638 10.0833 4.05724 9.94286 3.80719 9.69281C3.55714 9.44276 3.41667 9.10362 3.41667 8.75V2.08333Z" stroke="#717680" stroke-width="1.5" stroke-linecap="round" stroke-linejoin="round"/>
</svg>
