<svg width="13" height="14" viewBox="0 0 13 14" fill="none" xmlns="http://www.w3.org/2000/svg">
<path d="M0.75 3.41667H11.4167M4.75 6.08333V10.0833M7.41667 6.08333V10.0833M1.41667 3.41667L2.08333 11.4167C2.08333 11.7703 2.22381 12.1094 2.47386 12.3595C2.72391 12.6095 3.06304 12.75 3.41667 12.75H8.75C9.10362 12.75 9.44276 12.6095 9.69281 12.3595C9.94286 12.1094 10.0833 11.7703 10.0833 11.4167L10.75 3.41667M4.08333 3.41667V1.41667C4.08333 1.23986 4.15357 1.07029 4.2786 0.945262C4.40362 0.820238 4.57319 0.75 4.75 0.75H7.41667C7.59348 0.75 7.76305 0.820238 7.88807 0.945262C8.0131 1.07029 8.08333 1.23986 8.08333 1.41667V3.41667" stroke="#F04438" stroke-width="1.5" stroke-linecap="round" stroke-linejoin="round"/>
</svg>
